Coordinates
version=1
nRows=20
nColumns=32
inDegrees=yes

Units are S.I. units (second, meters, Newtons, ...)
If the header above contains a line with 'inDegrees', this indicates whether rotational values are in degrees (yes) or radians (no).

endheader
time	pelvis_tilt	pelvis_list	pelvis_rotation	pelvis_tx	pelvis_ty	pelvis_tz	hip_flexion_r	hip_adduction_r	hip_rotation_r	knee_angle_r	knee_adduction_r	med_cond_adduction_r	lat_cond_adduction_r	patella_r_constrained_knee_angle	ankle_angle_r	subtalar_angle_r	mtp_angle_r	hip_flexion_l	hip_adduction_l	hip_rotation_l	knee_angle_l	knee_adduction_l	med_cond_adduction_l	lat_cond_adduction_l	patella_l_constrained_knee_angle	ankle_angle_l	subtalar_angle_l	mtp_angle_l	lumbar_extension	lumbar_bending	lumbar_rotation
      0.34000000	      6.29031458	     -2.83991668	      0.33848633	     -0.12644435	      0.94858349	      0.22843900	     -4.20063807	      2.34770478	     -9.06520328	     -7.84385359	      3.07104329	     -0.00000000	     -0.00000000	     -0.13690107	     -1.43127786	     -5.38533479	     -0.00000000	     16.62090193	    -13.03006187	    -17.00889210	    -69.89124585	     -5.02371944	      0.00000000	      0.00000000	     -1.21983236	     -5.07792972	      1.42825454	      0.00000000	     -7.07498483	      5.62517185	     -4.08352304
      0.34500000	      6.35992991	     -2.60101411	      0.21414646	     -0.12024656	      0.94912893	      0.22851757	     -4.94956188	      1.99470148	     -9.21691755	     -7.42760612	      3.26416580	     -0.00000000	     -0.00000000	     -0.12963618	     -1.27063563	     -5.03563746	     -0.00000000	     17.07847180	    -12.69755964	    -16.57911310	    -68.99130724	     -4.28345445	      0.00000000	      0.00000000	     -1.20412547	     -4.55995358	      1.50874885	     -0.00000000	     -7.19197761	      5.42854046	     -3.82539458
      0.35000000	      6.31673085	     -2.64393701	      0.01398999	     -0.11404344	      0.94928522	      0.22889491	     -5.63791223	      2.05342564	     -9.01682686	     -6.82134868	      3.34767876	      0.00000000	      0.00000000	     -0.11905499	     -1.32354931	     -5.12676752	      0.00000000	     17.67288446	    -12.82435858	    -16.05929581	    -68.16180904	     -3.35627691	      0.00000000	      0.00000000	     -1.18964799	     -3.99214645	      1.69651053	     -0.00000000	     -7.17856602	      5.20448968	     -4.04528860
      0.35500000	      6.31194778	     -2.62111434	     -0.16024018	     -0.10782897	      0.94949769	      0.22919167	     -6.34465182	      2.01546327	     -8.89885877	     -6.27884856	      3.44773119	      0.00000000	      0.00000000	     -0.10958658	     -1.35014703	     -5.15704267	      0.00000000	     18.18309950	    -12.83074939	    -15.60471245	    -67.21106818	     -2.52325487	     -0.00000000	     -0.00000000	     -1.17305443	     -3.49325221	      1.79032680	     -0.00000000	     -7.21198775	      5.03768775	     -4.06538021
      0.36000000	      6.32967503	     -2.50602802	     -0.23507148	     -0.10164786	      0.94967037	      0.22920176	     -6.98790956	      1.79831267	     -9.11515586	     -5.95061404	      3.62631893	     -0.00000000	     -0.00000000	     -0.10385781	     -1.15406784	     -4.74632288	     -0.00000000	     18.64879821	    -12.65655063	    -15.09897660	    -66.14678926	     -1.73466310	      0.00000000	      0.00000000	     -1.15447926	     -3.02732867	      1.87061714	     -0.00000000	     -7.25580436	      4.93844070	     -3.94131350
      0.36500000	      6.36905541	     -2.38611764	     -0.48178230	     -0.09541668	      0.94988101	      0.22968773	     -7.73268511	      1.64202379	     -8.89610536	     -5.42452548	      3.74131753	     -0.00000000	     -0.00000000	     -0.09467583	     -1.15230980	     -4.80673111	      0.00000000	     18.97734166	    -12.57776081	    -14.85495412	    -64.96274837	     -0.99397137	     -0.00000000	     -0.00000000	     -1.13381385	     -2.62294635	      1.99320985	      0.00000000	     -7.34655100	      4.60243224	     -3.93150448
      0.37000000	      6.35829372	     -2.41809936	     -0.68298482	     -0.08920742	      0.94986845	      0.23009777	     -8.37669111	      1.66600257	     -8.77050482	     -4.97985691	      3.80425408	     -0.00000000	     -0.00000000	     -0.08691490	     -1.11477639	     -4.73806008	      0.00000000	     19.38746094	    -12.66939024	    -14.47567818	    -63.79001700	     -0.20901993	      0.00000000	      0.00000000	     -1.11334583	     -2.20776822	      2.08417579	     -0.00000000	     -7.36831373	      4.53222310	     -3.84095682
      0.37500000	      6.38237229	     -2.38647929	     -0.93576801	     -0.08298464	      0.94990297	      0.23061938	     -9.07514503	      1.61746136	     -8.52905625	     -4.48979140	      3.87055257	      0.00000000	      0.00000000	     -0.07836164	     -1.13773140	     -4.77682784	     -0.00000000	     19.67838654	    -12.69748466	    -14.28554450	    -62.48363756	      0.46173145	      0.00000000	      0.00000000	     -1.09054520	     -1.84030049	      2.18687069	     -0.00000000	     -7.43497649	      4.34086831	     -3.74353244
      0.38000000	      6.31452271	     -2.42352565	     -1.12206289	     -0.07674506	      0.94964174	      0.23098507	     -9.62145797	      1.63114333	     -8.42627384	     -4.13561757	      3.93870325	      0.00000000	      0.00000000	     -0.07218014	     -0.99177725	     -4.66898002	      0.00000000	     20.10455590	    -12.78263640	    -14.02106916	    -61.19768428	      1.10277349	     -0.00000000	      0.00000000	     -1.06810109	     -1.50347200	      2.30315519	      0.00000000	     -7.38864498	      4.21259293	     -3.77933175
      0.38500000	      6.40217834	     -2.33230099	     -1.31603470	     -0.07050623	      0.94967141	      0.23134533	    -10.33458441	      1.46713236	     -8.39314603	     -3.79793124	      4.05165080	     -0.00000000	     -0.00000000	     -0.06628640	     -0.87330624	     -4.48991551	     -0.00000000	     20.26486959	    -12.66842789	    -13.95750517	    -59.72177952	      1.56412256	     -0.00000000	     -0.00000000	     -1.04234169	     -1.19546188	      2.32894648	      0.00000000	     -7.53331714	      4.08391912	     -3.52101602
      0.39000000	      6.46044954	     -2.26727386	     -1.69144832	     -0.06428458	      0.94963587	      0.23220409	    -11.11141184	      1.36954842	     -7.83165524	     -3.19903388	      4.15898663	      0.00000000	      0.00000000	     -0.05583367	     -1.11302269	     -5.02562776	      0.00000000	     20.36546159	    -12.70215291	    -14.07540094	    -58.17563246	      2.03935201	      0.00000000	      0.00000000	     -1.01535633	     -0.93194920	      2.57160878	      0.00000000	     -7.65340457	      3.77606383	     -3.33428971
      0.39500000	      6.50738298	     -2.12189444	     -1.96523188	     -0.05791869	      0.94952392	      0.23276267	    -11.71798548	      1.15412353	     -7.78774084	     -2.98854721	      4.16913290	     -0.00000000	     -0.00000000	     -0.05215999	     -0.73966869	     -4.53647286	      0.00000000	     20.44229799	    -12.53269955	    -14.35105782	    -56.50109788	      2.24719816	     -0.00000000	     -0.00000000	     -0.98613019	     -0.67307057	      2.59395022	     -0.00000000	     -7.73937389	      3.72644235	     -2.71977033
      0.40000000	      6.52303829	     -2.11684318	     -2.18114402	     -0.05163871	      0.94919739	      0.23319530	    -12.33292703	      1.09898815	     -7.67551876	     -2.68207651	      4.22367239	     -0.00000000	     -0.00000000	     -0.04681107	     -0.56164635	     -4.37950761	      0.00000000	     20.60223510	    -12.51224426	    -14.48005511	    -54.87694763	      2.49358335	      0.00000000	      0.00000000	     -0.95778342	     -0.41979665	      2.68604233	      0.00000000	     -7.79824064	      3.48694382	     -2.80772547
      0.40500000	      6.60969041	     -1.98875083	     -2.63045422	     -0.04536524	      0.94904809	      0.23429597	    -12.94573374	      0.89106514	     -7.42111727	     -2.50342482	      4.23242428	     -0.00000000	     -0.00000000	     -0.04369301	     -0.29269268	     -4.08197345	     -0.00000000	     20.51121483	    -12.45749780	    -14.96694813	    -53.06063080	      2.67793624	     -0.00000000	     -0.00000000	     -0.92608271	     -0.25949418	      2.74312708	     -0.00000000	     -7.96804077	      3.66521034	     -1.52821184
      0.41000000	      6.70881519	     -1.90664093	     -3.02098614	     -0.03914816	      0.94886096	      0.23513920	    -13.63738445	      0.73096245	     -7.04010587	     -2.16769615	      4.26771279	      0.00000000	      0.00000000	     -0.03783343	     -0.22372606	     -4.16861681	     -0.00000000	     20.41021207	    -12.39544494	    -15.47446453	    -51.19088613	      2.75262650	     -0.00000000	     -0.00000000	     -0.89344951	     -0.12236942	      2.87929713	     -0.00000000	     -8.14778693	      3.41483041	     -1.17776019
      0.41500000	      6.55273127	     -2.14963362	     -3.04969950	     -0.03282087	      0.94791483	      0.23496868	    -14.10830768	      0.97617520	     -6.93328310	     -1.80939557	      4.29046697	     -0.00000000	     -0.00000000	     -0.03157991	     -0.12744393	     -4.16975336	     -0.00000000	     20.83870637	    -12.53678151	    -15.59398824	    -49.61742300	      2.68487274	     -0.00000000	     -0.00000000	     -0.86598740	      0.24063059	      3.25036824	      0.00000000	     -7.97146358	      3.10443194	     -2.23036099
      0.42000000	      6.55750009	     -2.14420256	     -3.24554261	     -0.02649650	      0.94734051	      0.23526047	    -14.66446605	      0.88015045	     -6.88992980	     -1.60821496	      4.36096103	     -0.00000000	     -0.00000000	     -0.02806865	      0.10206520	     -3.92311699	      0.00000000	     20.90263542	    -12.42637718	    -16.07895320	    -47.75541215	      2.50992326	      0.00000000	      0.00000000	     -0.83348918	      0.40029161	      3.52408541	      0.00000000	     -8.01511541	      3.07958762	     -1.96216898
      0.42500000	      6.53986254	     -2.13458884	     -3.53419839	     -0.02022169	      0.94670980	      0.23579399	    -15.23249441	      0.79683337	     -6.58485887	     -1.29744972	      4.39944752	     -0.00000000	     -0.00000000	     -0.02264477	      0.20878890	     -3.95157362	     -0.00000000	     20.92441080	    -12.34734426	    -16.67186000	    -45.81477073	      2.31559795	      0.00000000	      0.00000000	     -0.79961860	      0.53311830	      3.83783360	      0.00000000	     -8.04636761	      2.87614254	     -1.86984525
      0.43000000	      6.56750889	     -2.06016806	     -4.00557775	     -0.01394094	      0.94614939	      0.23682216	    -15.77220526	      0.62527201	     -6.20831867	     -1.11705563	      4.37683910	     -0.00000000	     -0.00000000	     -0.01949630	      0.47039140	     -3.80880034	     -0.00000000	     20.76811529	    -12.27021755	    -17.55091801	    -43.74080140	      2.08118355	      0.00000000	      0.00000000	     -0.76342100	      0.66572849	      4.18423168	      0.00000000	     -8.16593445	      3.17398615	     -0.49124835
      0.43500000	      6.40009992	     -2.37857541	     -3.92471902	     -0.00770252	      0.94493965	      0.23629554	    -16.18813351	      0.93570850	     -6.22109881	     -0.85901218	      4.40994820	     -0.00000000	     -0.00000000	     -0.01499259	      0.58231797	     -3.75048042	      0.00000000	     21.17094298	    -12.37803580	    -17.74906714	    -42.00857888	      1.78285223	      0.00000000	      0.00000000	     -0.73318802	      0.91367733	      4.58764074	     -0.00000000	     -7.99031951	      3.03701635	     -1.51114096
